PathFileType	4	(X/Y/Z)	static.trc
DataRate	CameraRate	NumFrames	NumMarkers	Units	OrigDataRate	OrigDataStartFrame	OrigNumFrames
250.000000	250.000000	4	58	mm	250.000000	301	483
Frame#	Time	RASI			LASI			RPSI			LPSI			RAIC			LAIC			RLFC			RMFC			RTH1			RTH2			RTH3			RLMAL			RMMAL			RTB1			RTB2			RTB3			RCAL			RMT1			RMT5			LLFC			LMFC			LTH1			LTH2			LTH3			LLMAL			LMMAL			LTB1			LTB2			LTB3			LCAL			LMT1			LMT5			C7			T10			CLAV			STRN			RACR			LACR			RHJC			LHJC			RKJC			LKJC			RAJC			LAJC			RMT3			LMT3			fRCAL			fLCAL			fRAJC			fLAJC			fRMT1			fLMT1			fRMT5			fLMT5			fRMT3			fLMT3			MTOR			MPEL			
		X1	Y1	Z1	X2	Y2	Z2	X3	Y3	Z3	X4	Y4	Z4	X5	Y5	Z5	X6	Y6	Z6	X7	Y7	Z7	X8	Y8	Z8	X9	Y9	Z9	X10	Y10	Z10	X11	Y11	Z11	X12	Y12	Z12	X13	Y13	Z13	X14	Y14	Z14	X15	Y15	Z15	X16	Y16	Z16	X17	Y17	Z17	X18	Y18	Z18	X19	Y19	Z19	X20	Y20	Z20	X21	Y21	Z21	X22	Y22	Z22	X23	Y23	Z23	X24	Y24	Z24	X25	Y25	Z25	X26	Y26	Z26	X27	Y27	Z27	X28	Y28	Z28	X29	Y29	Z29	X30	Y30	Z30	X31	Y31	Z31	X32	Y32	Z32	X33	Y33	Z33	X34	Y34	Z34	X35	Y35	Z35	X36	Y36	Z36	X37	Y37	Z37	X38	Y38	Z38	X39	Y39	Z39	X40	Y40	Z40	X41	Y41	Z41	X42	Y42	Z42	X43	Y43	Z43	X44	Y44	Z44	X45	Y45	Z45	X46	Y46	Z46	X47	Y47	Z47	X48	Y48	Z48	X49	Y49	Z49	X50	Y50	Z50	X51	Y51	Z51	X52	Y52	Z52	X53	Y53	Z53	X54	Y54	Z54	X55	Y55	Z55	X56	Y56	Z56	X57	Y57	Z57	X58	Y58	Z58	

302	1.204	520.2873535156252	1042.98876953125	406.8554992675784	517.8444824218752	1060.236083984375	191.1330261230469	342.6421203613282	1080.493530273438	355.7700500488282	344.4714965820314	1086.123901367188	259.9519653320314	446.4524536132815	1113.2451171875	458.3591613769534	458.7680358886721	1127.359008789063	162.7127685546876	419.166687011719	551.317077636719	490.6660461425784	405.6721496582034	520.6680908203127	370.0121154785157	441.1017761230471	805.544067382813	501.8086242675784	487.4189758300784	713.3580322265627	490.5349426269534	424.5439453125002	628.530700683594	492.600524902344	366.3981933593751	95.88850402832034	507.6345825195315	396.2483520507815	105.6339721679688	417.3506469726565	435.3049621582034	396.7662658691409	427.585876464844	443.3468933105471	331.1549682617189	483.4532165527346	427.2886657714846	258.0965270996095	442.1323242187502	312.3100891113282	44.22562789916994	455.0008850097659	530.7285156250002	47.48131561279298	445.7766418457034	519.5485839843752	43.63519668579103	554.8157348632815	419.9943542480471	545.793151855469	109.4012985229493	410.586120605469	519.8048095703127	232.0367736816407	439.178649902344	832.2195434570317	103.0399398803712	478.1899414062502	740.9917602539065	107.2858505249024	413.8515930175784	660.0908203125002	111.1366195678712	372.2142333984376	100.0749206542969	87.9816818237305	400.2678527832034	102.7503738403321	178.8394165039063	439.4737854003909	395.8645324707034	170.2566070556641	450.4544677734377	324.3005371093751	121.7443237304688	424.8236999511721	258.0685119628907	166.8999938964844	318.0817871093751	44.50761795043947	134.1574401855469	541.0666503906252	42.82695770263673	162.4240875244141	533.117858886719	41.33214187622072	52.43945693969729	345.236541748047	1540.012329101563	311.7059020996095	332.0319824218751	1268.274169921875	306.2307739257814	486.3303527832034	1507.15478515625	316.5494079589845	563.5361328125002	1325.591674804688	314.542205810547	345.7940368652345	1533.500610351563	487.9954528808596	348.5638732910157	1539.850463867188	142.8332824707032	465.9663870119975	989.9404635075026	366.3247304462502	464.3539272941052	1001.324854549927	223.9333455387194	412.4194183349612	535.9925842285159	430.339080810547	415.290237426758	532.7989807128909	170.719036102295	381.3232727050783	100.7612380981446	462.492614746094	386.2410430908205	101.4126472473145	133.4105491638184	525.1385498046877	45.55825614929201	500.2961883544924	537.0922546386721	42.07954978942873	107.4317722320557	312.3100891113282	0	455.0008850097659	318.0817871093751	0	134.1574401855469	381.3232727050783	0	462.492614746094	386.2410430908205	0	133.4105491638184	530.7285156250002	0	445.7766418457034	541.0666503906252	0	162.4240875244141	519.5485839843752	0	554.8157348632815	533.117858886719	0	52.43945693969729	525.1385498046877	0	500.2961883544924	537.0922546386721	0	107.4317722320557	381.4812011718752	1530.129547119141	314.7710113525392	431.311363220215	1067.460571289063	303.4276351928712	
303	1.208	520.4030761718752	1043.025390625	406.8669433593752	517.8616333007815	1060.209838867188	191.0909729003907	342.7227172851564	1080.503784179688	355.8586425781251	344.5308227539064	1086.105834960938	259.9876098632814	446.4895324707034	1113.21484375	458.3728637695315	458.709655761719	1127.2724609375	162.7653961181641	419.1738891601565	551.2974853515627	490.6804504394534	405.6687011718752	520.6702270507815	370.0226440429689	441.0926208496096	805.5122680664067	501.836608886719	487.536560058594	713.4297485351565	490.6637878417971	424.542419433594	628.5346679687502	492.599548339844	366.468231201172	95.90805816650393	507.7073059082034	396.1932067871096	105.5381546020508	417.4382324218752	435.299255371094	396.8044738769534	427.6157531738284	443.3536376953127	331.1644287109376	483.4856872558596	427.2439270019534	258.1462402343751	442.1401672363284	312.2942504882814	44.22490310668947	455.0091247558596	530.7176513671877	47.44413375854494	445.7810668945315	519.5786743164065	43.64648056030275	554.8665771484377	420.0323486328127	545.7645263671877	109.4220199584962	410.5661315917971	519.8359375000002	232.0678253173829	439.1894836425784	832.215942382813	103.0411605834962	478.1863403320315	741.0030517578127	107.2454681396485	413.8446044921877	660.1426391601565	111.1368255615235	372.2348022460939	100.0527267456055	88.01588439941409	400.2620849609377	102.7795867919922	178.8502044677735	439.500427246094	395.8753356933596	170.252182006836	450.4639282226565	324.3131103515626	121.7498779296876	424.8260498046877	258.0695800781251	166.9069519042969	318.0802612304689	44.49415206909181	134.1714324951172	541.3786621093752	43.12009811401369	162.2456359863282	533.1873779296877	41.37007522583009	52.49098968505862	345.2419433593751	1539.995849609376	311.7380981445314	332.0627441406251	1268.241943359375	306.2966918945314	486.3435668945315	1507.13232421875	316.6060791015626	563.4844970703127	1325.52001953125	314.5239257812501	345.7750854492189	1533.461669921875	488.0419921875002	348.5409545898439	1539.831054687501	142.8687286376954	466.0647146598131	989.9472564663905	366.3674565824139	464.3871909583958	1001.29015130378	223.9407631641575	412.4212951660159	535.9838562011721	430.3515472412112	415.2992401123049	532.800231933594	170.7449226379395	381.3307189941408	100.7231063842774	462.5727691650393	386.2484436035159	101.4161567687989	133.4330444335938	525.1481628417971	45.54530715942384	500.3238220214846	537.2830200195315	42.24508666992189	107.3683128356934	312.2942504882814	0	455.0091247558596	318.0802612304689	0	134.1714324951172	381.3307189941408	0	462.5727691650393	386.2484436035159	0	133.4330444335938	530.7176513671877	0	445.7810668945315	541.3786621093752	0	162.2456359863282	519.5786743164065	0	554.8665771484377	533.1873779296877	0	52.49098968505862	525.1481628417971	0	500.3238220214846	537.2830200195315	0	107.3683128356934	381.4753875732424	1530.105224609375	314.8137245178224	431.3795623779299	1067.461212158204	303.4510421752931	
304	1.212	520.1997070312502	1042.784301757813	406.7173461914065	517.927673339844	1060.218872070313	191.050277709961	342.8586730957032	1080.533569335938	355.6917724609376	344.5658569335939	1086.10205078125	259.9907836914064	446.5553283691409	1113.171752929688	458.364685058594	458.7378234863284	1127.2587890625	162.7897949218751	419.1585083007815	551.3164672851565	490.6563110351565	405.664489746094	520.6724243164065	370.039764404297	441.0986633300784	805.5089721679692	501.8251037597659	487.5886230468752	713.4797973632815	490.7008056640627	424.5352478027346	628.539489746094	492.5989074707034	366.3373107910157	95.9504318237305	507.6204528808596	396.1904602050784	105.5955047607422	417.3405456542971	435.288024902344	396.777770996094	427.5958251953127	443.3739929199221	331.1946411132814	483.5054626464846	427.2117919921877	258.061248779297	442.1245117187502	312.3105468750001	44.2246437072754	454.9182434082034	530.7178344726565	47.44929885864259	445.7592468261721	519.552917480469	43.60779571533205	554.8362426757815	420.1027526855471	545.7633056640627	109.449317932129	410.594177246094	519.8027343750002	232.0748138427736	439.2235107421877	832.2443847656255	103.0919265747071	478.2176208496096	741.0050048828127	107.2647247314454	413.8638610839846	660.1184082031252	111.150993347168	372.3757324218751	100.0615768432618	88.10156250000003	400.260437011719	102.7812957763672	178.868392944336	439.4996032714846	395.8690185546877	170.2501525878907	450.469909667969	324.2915344238282	121.7717514038087	424.8293151855471	258.0647277832032	166.8782348632813	318.0904846191407	44.49819946289064	134.1832885742188	541.0346679687502	42.83863830566408	162.4067077636719	533.1954345703127	41.35078430175783	52.50349044799808	345.2590637207032	1539.981201171876	311.783416748047	332.078338623047	1268.22705078125	306.3406372070314	486.311706542969	1507.0771484375	316.6317749023439	563.497253417969	1325.477294921875	314.5552368164064	345.8306884765626	1533.625	488.043640136719	348.5577087402345	1539.828857421876	142.9074096679688	465.889996728501	989.8294255190293	366.1088642024916	464.3903011910362	1001.337418289634	223.7540472809336	412.4114990234377	535.9944458007815	430.3480377197267	415.3484649658205	532.7830200195315	170.7620658874513	381.263885498047	100.7729682922364	462.4804992675784	386.318084716797	101.4214363098145	133.484977722168	525.1353759765627	45.52854728698732	500.2977447509768	537.1150512695315	42.09471130371095	107.455099105835	312.3105468750001	0	454.9182434082034	318.0904846191407	0	134.1832885742188	381.263885498047	0	462.4804992675784	386.318084716797	0	133.484977722168	530.7178344726565	0	445.7592468261721	541.0346679687502	0	162.4067077636719	519.552917480469	0	554.8362426757815	533.1954345703127	0	52.50349044799808	525.1353759765627	0	500.2977447509768	537.1150512695315	0	107.455099105835	381.4897918701173	1530.128051757813	314.8415603637696	431.3879776000978	1067.409698486329	303.3625450134278	
305	1.216	520.2325439453127	1042.781372070313	406.7298583984377	517.9265747070315	1060.208129882813	191.0760192871094	342.8501281738282	1080.47509765625	355.9010314941407	344.5940551757814	1086.0908203125	260.0147399902345	446.5890808105471	1113.1513671875	458.3860168457034	458.8097839355471	1127.348022460938	162.7184295654297	419.1769714355471	551.3274536132815	490.7048339843752	405.6501159667971	520.685729980469	370.0406494140626	441.1128845214846	805.491577148438	501.8461608886721	487.4682312011721	713.3825683593752	490.6053161621096	424.5405273437502	628.5408935546877	492.5849304199221	366.4158630371095	95.91939544677737	507.6534729003909	396.1579589843752	105.576042175293	417.349304199219	435.2922973632815	396.8045959472659	427.6096191406252	443.3130798339846	331.1614990234376	483.4600524902346	427.258728027344	258.1630859375001	442.1665954589846	312.3323364257814	44.21198654174806	454.9429321289065	530.7495117187502	47.44547653198244	445.793640136719	519.5804443359377	43.64007949829103	554.884216308594	420.0808715820315	545.755798339844	109.4692764282227	410.5162658691409	519.8049926757815	232.0155792236329	439.2241516113284	832.2620239257817	103.088233947754	478.2475891113284	741.0043945312502	107.2489624023438	413.872497558594	660.1401367187502	111.138282775879	372.3752441406251	100.0402603149415	88.09088134765628	400.2529907226565	102.7619934082032	178.8535766601563	439.4775085449221	395.854187011719	170.2744903564454	450.4570922851565	324.2962951660157	121.7465286254883	424.8390197753909	258.0563354492189	166.8827667236329	318.0772094726564	44.50865936279298	134.1832580566407	541.885437011719	43.1457977294922	162.638656616211	533.1369628906252	41.34789276123048	52.44783782958987	345.2774047851564	1539.963989257813	311.8111877441407	332.108367919922	1268.20751953125	306.3243408203126	486.2614746093752	1506.9326171875	316.6941223144532	563.4602661132815	1325.41064453125	314.5171508789064	345.8535461425782	1533.544555664063	488.1331787109377	348.5287475585939	1539.805419921876	142.9449310302735	465.9232153187094	989.8221437636778	366.133584035604	464.4011200208947	1001.324979830274	223.7874984860341	412.4135437011721	536.0065917968752	430.3727416992189	415.2985687255862	532.7803955078127	170.7424278259278	381.2869110107424	100.7477188110352	462.5013885498049	386.3141174316408	101.4011268615724	133.4722290039063	525.164978027344	45.54277801513673	500.3389282226565	537.5111999511721	42.24684524536134	107.5432472229004	312.3323364257814	0	454.9429321289065	318.0772094726564	0	134.1832580566407	381.2869110107424	0	462.5013885498049	386.3141174316408	0	133.4722290039063	530.7495117187502	0	445.793640136719	541.885437011719	0	162.638656616211	519.5804443359377	0	554.884216308594	533.1369628906252	0	52.44783782958987	525.164978027344	0	500.3389282226565	537.5111999511721	0	107.5432472229004	381.480293273926	1530.061645507813	314.8958549499513	431.4008255004885	1067.388854980469	303.4304122924806	
